<svg xmlns="http://www.w3.org/2000/svg" width="4.2333331mm" height="4.2333331mm" viewBox="0 0 4.2333331 4.2333331"><path d="M2.11666664.13229167A1.98437498 1.98437498 0 0 0 .13229166 2.11666664a1.98437498 1.98437498 0 0 0 1.98437498 1.98437497 1.98437498 1.98437498 0 0 0 1.98437497-1.98437497A1.98437498 1.98437498 0 0 0 2.11666664.13229166zm.00258381.39687499c.18449552 0 .27646892.09378659.27646892.28163655 0 .1895272-.0919734.28422038-.27646892.28422038-.09057052 0-.16013305-.02422406-.20877278-.07286379-.04863973-.05031694-.07286376-.12078607-.07286376-.2113566 0-.09057052.02422403-.16013305.07286376-.20877278.04863973-.04863973.11820226-.07286376.20877278-.07286376zm-.22169188.72967121h.43304851v2.44532875h-.43304851V1.25883787z" opacity=".95"/></svg>