<svg xmlns="http://www.w3.org/2000/svg" width="100" height="20" viewBox="0 0 26.458333 5.2916668"><g stroke-linejoin="round" stroke-miterlimit="1.41400003" clip-rule="evenodd"><path fill="#3b3a40" d="M26.06437325 1.0385007c-.25318926 0-.39382253.18377217-.39382253.40278643 0 .21901425.14063327.40264838.39382253.40264838.25318926 0 .39395968-.18363413.39395968-.40264838 0-.21901426-.14077042-.40278644-.39395968-.40278644zm-17.87792011.00717533V3.2569307c0 .19781933.01401121.38156395-.16181466.5157985-.1617598.13423454-.43593846.1766244-.73132593.1766244-.45011417 0-.92844297-.10597464-.92844297-.10597464l-.10549553.28259904s.66816582.1412719 1.15344524.14833687c.40791603.00706498.76654596-.08480734.96347094-.31088657.1617598-.18368937.21101848-.3955834.20398544-.75589718v-2.1618551zm12.21632694 0v3.20738874h.37280571V1.04567603Zm4.52930197 0v2.47977902h.3728057V1.04567603zm1.1322912.07064976c.19692498 0 .30948097.14127196.30948097.32496134 0 .18368937-.11255599.32496127-.30948097.32496127-.19692498 0-.30934382-.1412719-.30934382-.32496127 0-.18368938.11241884-.32496134.30934382-.32496134zm-.1476663.11301206v.4096858h.07733595v-.14129952h.07033035l.11263828.14129952h.08434156v-.01407477l-.11950674-.13426217c.15472677-.0282599.1406607-.26134886-.03516517-.26134886zm.07733595.07064976h.11263828c.09142945 0 .09142945.1342621 0 .1342621h-.11263828zm-3.2983837.71353495c-.41494906 0-.77371613.07774236-1.0691036.2402368-.36571782.20488431-.5556372.50155806-.5556372.89719671 0 .38857368.19000166.6923401.56978555.89015942.29538747.16249445.6540174.24023674 1.06896647.24023674.20395801 0 .40794345-.02119493.59080236-.07064976.2602223-.07064976.47819153-.16947662.64698437-.30371116v.33903604h.3728057V2.04884744h-.3658001v.3744989c-.31648657-.26846908-.73835896-.40982378-1.25880355-.40982378Zm-12.28679443.00703742c-.400883 0-.75954035.08477971-1.06196085.24727416-.3797839.2048843-.56964841.50865072-.56964841.89015943 0 .3815087.18986452.68541302.5696484.89029733.30242051.16249444.65404483.24727416 1.06196086.24727416.400883 0 .75956778-.08477972 1.05495525-.24727416.3797839-.2048843.5696484-.50878863.5696484-.89029733 0-.38857368-.18989194-.68527512-.5626428-.89015943-.29538746-.16249445-.65404482-.24727416-1.06196085-.24727416zm3.4603355 0c-.40088299 0-.75967749.08477971-1.062098.24727416-.37978388.2048843-.5696484.50865072-.5696484.89015943 0 .3815087.18986452.68541302.5696484.89029733.30242051.16249444.65418198.24727416 1.062098.24727416.400883 0 .75956779-.08477972 1.05495526-.24727416.37978389-.2048843.5696484-.50878863.5696484-.89029733 0-.38857368-.18989194-.68527512-.5626428-.89015943-.29538747-.16249445-.65404482-.24727416-1.06196085-.24727416zm3.03821627 0c-.33758568-7e-8-.61181919.07067732-.82281024.20491186v-.1766244h-.37280571v2.19717991h.37280571V2.7483077c.02813214-.10597464.0984625-.20485675.21099105-.28963646.15472677-.10597464.35165175-.16254963.59780798-.16254963.21802408 0 .40077328.04241748.55550005.13426217.1828589.10597464.26731019.24719136.26731019.44501068v1.38484566h.36566296V2.86835703c0-.19781933.08445128-.33903604.26731019-.44501068.15472677-.08477972.34461871-.1342621.5626428-.1342621.21802408 0 .40791603.0424174.5626428.1342621.1828589.10597464.26731018.24719135.26731018.44501068v1.38470774h.37266857v-1.3351701c-.00703303-.31085895-.14761145-.55106813-.40783374-.7064976-.21099105-.12716957-.48527942-.19083716-.80879903-.19083716-.41494906 0-.745584.1271972-.99877325.38153633-.2391232-.25433914-.57668144-.38153633-.99163051-.38153626Zm-6.49855177.27556162c.32351961 0 .60486844.0635296.8369586.19069917.26725532.15542948.40797088.3815087.40797088.67117272-.00703303.28259904-.14068813.50870583-.4149765.6641353-.23209015.13423455-.50643337.19787458-.82995298.19787458-.33055264 0-.61190147-.06366759-.8369586-.19083716-.27428836-.15542947-.40783374-.37444372-.40783374-.67117272 0-.28966401.14057842-.51574324.40783375-.67117272.22505712-.12716956.50640595-.19069917.8369586-.19069917zm3.4603355 0c.32351962 0 .6047313.0635296.83682146.19069917.26725533.15542948.40797089.3815087.40797089.67117272-.00703304.28259904-.14068813.50870583-.4149765.6641353-.23209015.13423455-.50629623.19787458-.82981584.19787458-.33055265 0-.61190148-.06366759-.8369586-.19083716-.27428836-.15542947-.40797088-.37444372-.40797088-.67117272 0-.28966401.14071555-.51574324.40797088-.67117272.22505712-.12716956.50640595-.19069917.8369586-.19069917zm8.84747575 0c.40791603 0 .7244026.09885449.94945973.29667381.19692498.1766244.29546975.402814.29546975.67834806v.26134893c-.15472677.1766244-.3868992.31080377-.68228668.40264845-.17582587.05651981-.36571782.08486252-.5626428.08486252-.33758568 0-.61890708-.06355723-.8439642-.18366182-.27428836-.16249445-.40783374-.38161906-.40783374-.67834806 0-.28966401.14057841-.51574324.40783374-.67117272.22505712-.12716956.51341156-.19069917.8439642-.19069917zm2.40538026 1.54021995c-.2602223 0-.29546976.13420699-.29546976.2189867 0 .08477971.0422805.21898663.29546976.21898663.2602223 0 .29533261-.1412719.29533261-.21898663 0-.07771474-.04214335-.2189867-.29533261-.2189867z"/><path fill="#7ac143" d="M.94242709 2.66350035.8439646 2.5645907C.52747803 2.24666677.43604857 1.80157328.54857713 1.39886965.23209056 1.32821989 4e-7 1.04562085 4e-7 .706502c0-.38857368.31648658-.7064976.7033035-.7064976.35165175 0 .64000619.25433914.69627047.59345798.37978389-.09184468.79473295.01412996 1.09012042.31085895L2.531893.94671118l-.52044459.52280823-.04219821-.04238986c-.16879284-.16955942-.4430812-.16955942-.61187404 0-.16879284.16955943-.16879284.44509349 0 .61465291l1.1674838 1.17278602-.52044458.52280822-.54857674-.55106812Z"/><path fill="#f9a541" d="M1.526169 2.08417232 2.6936528.9113863C3.00310634.60052736 3.4532206.5016177 3.84707055.61465731 3.89630179.2684735 4.19168926.00706938 4.543341.00706938c.38681692 0 .7033035.31792392.7033035.7064976 0 .36031377-.26725533.65704276-.61187405.69943262.11252856.39563866.01406607.84073214-.29538747 1.15159109l-.0421982.04238985-.50637853-.52280822.04219821-.04238986c.16879284-.16955942.16879284-.44509348 0-.6146529-.16879284-.16955943-.4430812-.16955943-.61187404 0l-1.16748381 1.172786Z"/><path fill="#f44321" d="M3.86816965 4.71940837c-.400883.12010459-.85099723.0282599-1.16748381-.28966402l-.04219821-.04238985.52044459-.52280823.04219821.04238986c.16879284.16955942.4430812.16955942.61187404 0 .16879284-.16955943.16879284-.44509349 0-.61465291L2.66552067 2.1194972l.52044458-.52280822L4.3604821 2.77653997c.29538747.29672899.400883.72062755.30945354 1.10920123.34461871.04945483.60484101.34618382.60484101.69943262 0 .38857368-.31648657.7064976-.7033035.7064976-.35165175-.00706497-.64000618-.25433913-.7033035-.57226305z"/><path fill="#5091cd" d="M3.66421164 3.24989336 2.49672782 4.42267938c-.30242051.30379396-.72440261.40270363-1.1041865.31085894-.07033035.31792392-.35165175.55106813-.68923743.55106813-.38681692 0-.7033035-.31792392-.7033035-.7064976 0-.33205387.23209016-.61465291.5415437-.68530267-.0984625-.39563866 0-.81953722.3024205-1.12333119l.04219821-.04238985.52044459.52280822-.04219821.04238986c-.16879284.16955942-.16879284.44509348 0 .6146529.16879284.16955943.4430812.16955943.61187404 0l1.16748381-1.172786Z"/></g></svg>